<svg width="14" height="14" viewBox="0 0 14 14" fill="none" xmlns="http://www.w3.org/2000/svg">
<path fill-rule="evenodd" clip-rule="evenodd" d="M13.3333 2.42424C13.3333 3.33697 11.9462 4.13191 9.89667 4.54547C11.9462 4.959 13.3333 5.75394 13.3333 6.66667C13.3333 7.5794 11.9462 8.37434 9.89667 8.78787C11.9462 9.20144 13.3333 9.99637 13.3333 10.9091C13.3333 12.248 10.3486 13.3333 6.66667 13.3333C2.98477 13.3333 5.126e-06 12.248 5.126e-06 10.9091C5.126e-06 9.99637 1.38715 9.20144 3.43667 8.78787C1.38715 8.37434 5.126e-06 7.5794 5.126e-06 6.66667C5.126e-06 5.75394 1.38715 4.959 3.43667 4.54547C1.38715 4.13191 5.126e-06 3.33697 5.126e-06 2.42424C5.126e-06 1.08538 2.98477 5.126e-06 6.66667 5.126e-06C10.3486 5.126e-06 13.3333 1.08538 13.3333 2.42424Z" fill="#0D1C17"/>
</svg>
