<svg width="14" height="14" viewBox="0 0 14 14" fill="none" xmlns="http://www.w3.org/2000/svg">
<path fill-rule="evenodd" clip-rule="evenodd" d="M13.3333 2.42423C13.3333 3.33697 11.9462 4.1319 9.89667 4.54547C11.9462 4.959 13.3333 5.75393 13.3333 6.66667C13.3333 7.5794 11.9462 8.37433 9.89667 8.78787C11.9462 9.20143 13.3333 9.99637 13.3333 10.9091C13.3333 12.248 10.3486 13.3333 6.66667 13.3333C2.98477 13.3333 0 12.248 0 10.9091C0 9.99637 1.38715 9.20143 3.43667 8.78787C1.38715 8.37433 0 7.5794 0 6.66667C0 5.75393 1.38715 4.959 3.43667 4.54547C1.38715 4.1319 0 3.33697 0 2.42423C0 1.08537 2.98477 0 6.66667 0C10.3486 0 13.3333 1.08537 13.3333 2.42423Z" fill="#19C3B5"/>
</svg>
