<svg width="57" height="57" viewBox="0 0 57 57" fill="none" xmlns="http://www.w3.org/2000/svg">
<path d="M28.3688 57C44.0364 57 56.7376 44.2401 56.7376 28.5C56.7376 12.7599 44.0364 0 28.3688 0C12.7011 0 0 12.7599 0 28.5C0 44.2401 12.7011 57 28.3688 57Z" fill="#EEEEEE"/>
<path fill-rule="evenodd" clip-rule="evenodd" d="M11.3477 28.5C11.3477 19.0566 18.9689 11.4 28.3689 11.4C37.7689 11.4 45.3902 19.0566 45.3902 28.5C45.3902 37.9435 37.7689 45.6 28.3689 45.6C18.9689 45.6 11.3477 37.9435 11.3477 28.5ZM36.7122 35.7162C38.2469 36.0725 38.9959 36.6496 39.3661 37.4846C41.3547 35.0308 42.5533 31.9043 42.5533 28.5C42.5533 20.6426 36.1902 14.25 28.3689 14.25C20.5477 14.25 14.1845 20.6426 14.1845 28.5C14.1845 31.9072 15.3845 35.0365 17.3774 37.4918C17.7448 36.6539 18.4881 36.0725 20.0257 35.7162C20.0918 35.7009 20.1579 35.6856 20.224 35.6703C23.3385 34.9497 26.3191 34.2602 24.8384 31.5196C20.3633 23.2261 23.5633 18.525 28.3689 18.525C33.081 18.525 36.3604 23.0522 31.8994 31.5196C30.45 34.2658 33.3834 34.9452 36.5882 35.6875C36.6295 35.6971 36.6708 35.7066 36.7122 35.7162Z" fill="#D9D9D9"/>
</svg>
